<svg xmlns="http://www.w3.org/2000/svg" xml:space="preserve" style="fill-rule:evenodd;clip-rule:evenodd;stroke-linejoin:round;stroke-miterlimit:2" viewBox="0 0 24 24"><path d="m8.984.008.719-.004 5.805.007 1.785.004c.948.003 1.925.007 2.847.25l.16.044.159.05.157.055.155.06.153.064.15.07.149.075.145.08.143.084.14.09.138.093.134.098.13.103.128.107.123.11.12.116c1.443 1.432 1.567 3.146 1.574 5.074l.002 7.73v2.492c0 1.035.022 2.107-.215 3.122a4.983 4.983 0 0 1-.501 1.32 5.041 5.041 0 0 1-.847 1.13c-1.387 1.393-2.983 1.533-4.851 1.56-.854.014-1.709.005-2.563.005H6.928c-.979-.001-1.998.006-2.954-.23l-.163-.042-.162-.047-.16-.053-.158-.058-.156-.063-.154-.069-.151-.073-.15-.079-.146-.084-.143-.088-.14-.093-.138-.098-.133-.102-.13-.107-.128-.11-.123-.116C.203 21.08.04 19.447.02 17.535L.004 9.838a133.38 133.38 0 0 1 .012-2.935c.012-.972 0-1.964.227-2.915l.042-.167.048-.166.054-.163.059-.162.064-.16.07-.157.076-.155.08-.152.086-.149.09-.146.096-.143.1-.14.106-.136.11-.133.114-.129.119-.124C3 .139 4.73.02 6.68.016L8.984.007Zm-2.22 2.451c-1.268.03-2.453.01-3.392 1.008-.441.47-.688.97-.8 1.606-.14.79-.118 1.645-.117 2.446v7.483c0 .922-.01 1.846.009 2.767.022 1.126.168 2.105 1.021 2.912 1.047.99 2.496.89 3.83.886l2.464-.005 4.923.001c.847 0 1.698.02 2.545.003 1.257-.017 2.422-.004 3.365-.97 1.05-1.073.951-2.525.951-3.917v-2.426c0-2.618.004-5.241-.007-7.86-.015-.492-.045-1.043-.146-1.522-.235-1.105-1.224-2.073-2.335-2.286-.746-.143-1.726-.137-2.492-.137h-2.446c-2.43.001-4.923-.044-7.347.01l-.025.001ZM18.44 20.218l-9.313-.003-2.596.001c-.558 0-1.135.015-1.69-.038a1.287 1.287 0 0 1-.644-.286c-.28-.26-.357-.719-.364-1.088-.017-.946-.004-1.901-.002-2.847V7.03c0-.683-.014-1.36.024-2.042.062-1.098.914-1.129 1.777-1.151l.052-.002c.747-.023 1.66.016 2.43.017l5.615.002 3.446-.005c.65-.002 1.317-.02 1.96.02.465.023.96.394 1.004.892.103 1.18.061 2.496.062 3.682l.003 5.574-.004 3.27c-.001.59.011 1.174-.027 1.762-.071 1.101-.832 1.164-1.733 1.168Zm-.757-13.58c-.852.686-1.94 1.843-2.71 2.637-1.21 1.246-2.503 2.592-3.61 3.926-.837-.76-1.713-1.578-2.581-2.295-.337.332-.75.745-1.057 1.103.385.46.938 1.047 1.361 1.48.771.795 1.999 2.237 2.802 2.883a5.24 5.24 0 0 0 .487-.634c1.778-2.84 3.763-5.593 5.977-8.11-.11-.187-.505-.874-.669-.99Z"/></svg>